<svg width="15" height="15" viewBox="0 0 15 15" fill="none" xmlns="http://www.w3.org/2000/svg">
  <path
    d="M14.4229 7.06545C15.5303 6.22787 14.9379 4.46286 13.5495 4.46286H11.0373C10.4024 4.46286 9.84154 4.04922 9.65401 3.44264L8.9051 1.02026C8.48456 -0.340027 6.55912 -0.340027 6.13858 1.02026L5.38967 3.44264C5.20214 4.04922 4.64131 4.46286 4.00641 4.46286H1.45076C0.066821 4.46286 -0.528353 6.21845 0.570262 7.06008L2.75909 8.73689C3.23912 9.10462 3.44005 9.73194 3.26302 10.3101L2.46773 12.9076C2.05529 14.2546 3.61434 15.3375 4.73265 14.4808L6.64134 11.7754L9.068 12.2614L8.70039L14.4229 7.06545Z"
    fill="#FFAD33"
  />
</svg>
