<svg width="80" height="80" viewBox="0 0 80 80" fill="none" xmlns="http://www.w3.org/2000/svg">
  <!-- Cercle avec opacité -->
  <path opacity="0.3"
        d="M80 40C80 62.0914 62.0914 80 40 80C17.9086 80 0 62.0914 0 40C0 17.9086 17.9086 0 40 0C62.0914 0 80 17.9086 80 40ZM10.9071 40C10.9071 56.0675 23.9325 69.0929 40 69.0929C56.0675 69.0929 69.0929 56.0675 69.0929 40C69.0929 23.9325 56.0675 10.9071 40 10.9071C23.9325 10.9071 10.9071 23.9325 10.9071 40Z"
        fill="#2F2E30"/>

  <!-- Cercle central -->
  <circle cx="40" cy="40" r="29" fill="#4E1EOF"/>

  <!-- Icône -->
  <g clip-path="url(#clip0_0_428)">
    <!-- Petits cercles -->
    <path d="M31.6666 51.6667C33.5075 51.6667 34.9999 50.1743 34.9999 48.3333C34.9999 46.4924 33.5075 45 31.6666 45C29.8256 45 28.3333 46.4924 28.3333 48.3333C28.3333 50.1743 29.8256 51.6667 31.6666 51.6667Z"
          stroke="#FAFAFA" stroke-width="2" stroke-linecap="round" stroke-linejoin="round"/>

    <path d="M48.3333 51.6667C50.1743 51.6667 51.6667 50.1743 51.6667 48.3333C51.6667 46.4924 50.1743 45 48.3333 45C46.4924 45 45 46.4924 45 48.3333C45 50.1743 46.4924 51.6667 48.3333 51.6667Z"
          stroke="#FAFAFA" stroke-width="2" stroke-linecap="round" stroke-linejoin="round"/>

    <!-- Chariot -->
    <path d="M28.3333 48.3335H26.9999C25.8953 48.3335 24.9999 47.4381 24.9999 46.3335V41.6668M23.3333 28.3335H39.6666C40.7712 28.3335 41.6666 29.2289 41.6666 30.3335V48.3335M34.9999 48.3335H44.9999M51.6666 48.3335H52.9999C54.1045 48.3335 54.9999 47.4381 54.9999 46.3335V38.3335M54.9999 38.3335H41.6666M54.9999 38.3335L50.5825 30.9712C50.2211 30.3688 49.5701 30.0002 48.8675 30.0002H41.6666"
          stroke="#FAFAFA" stroke-width="2" stroke-linecap="round" stroke-linejoin="round"/>

    <!-- Lignes supplémentaires -->
    <path d="M25 31.8184H31.6667" stroke="#FAFAFA" stroke-width="2" stroke-linecap="round" stroke-linejoin="round"/>
    <path d="M21.8181 35.4546H28.4848" stroke="#FAFAFA" stroke-width="2" stroke-linecap="round" stroke-linejoin="round"/>
    <path d="M25 39.0908H31.6667" stroke="#FAFAFA" stroke-width="2" stroke-linecap="round" stroke-linejoin="round"/>
  </g>

  <!-- Définition du clip-path -->
  <defs>
    <clipPath id="clip0_0_428">
      <rect width="40" height="40" fill="white" transform="translate(20 20)"/>
    </clipPath>
  </defs>
</svg>
